<svg xmlns="http://www.w3.org/2000/svg" viewBox="0 0 1200 675" role="img" aria-label="Chess Arena">
  <defs>
    <linearGradient id="sky" x1="0" y1="0" x2="1" y2="1">
      <stop offset="0" stop-color="#dcefff"/>
      <stop offset="0.52" stop-color="#f2fbf1"/>
      <stop offset="1" stop-color="#fff0df"/>
    </linearGradient>
    <filter id="shadow" x="-20%" y="-20%" width="140%" height="150%">
      <feDropShadow dx="0" dy="24" stdDeviation="20" flood-color="#2c5260" flood-opacity="0.24"/>
    </filter>
  </defs>
  <rect width="1200" height="675" fill="url(#sky)"/>
  <g filter="url(#shadow)">
    <path d="M256 98h688c38 0 68 30 68 68v354c0 38-30 68-68 68H256c-38 0-68-30-68-68V166c0-38 30-68 68-68Z" fill="#fbfdff" opacity=".9"/>
    <g transform="translate(296 122)">
      <rect width="448" height="448" rx="10" fill="#102028" opacity=".16"/>
      <g transform="translate(16 16)">
        <rect width="52" height="52" fill="#f2ead8"/>
        <rect x="52" width="52" height="52" fill="#6f9f78"/>
        <rect x="104" width="52" height="52" fill="#f2ead8"/>
        <rect x="156" width="52" height="52" fill="#6f9f78"/>
        <rect x="208" width="52" height="52" fill="#f2ead8"/>
        <rect x="260" width="52" height="52" fill="#6f9f78"/>
        <rect x="312" width="52" height="52" fill="#f2ead8"/>
        <rect x="364" width="52" height="52" fill="#6f9f78"/>
        <g transform="translate(0 52)"><rect width="52" height="52" fill="#6f9f78"/><rect x="52" width="52" height="52" fill="#f2ead8"/><rect x="104" width="52" height="52" fill="#6f9f78"/><rect x="156" width="52" height="52" fill="#f2ead8"/><rect x="208" width="52" height="52" fill="#6f9f78"/><rect x="260" width="52" height="52" fill="#f2ead8"/><rect x="312" width="52" height="52" fill="#6f9f78"/><rect x="364" width="52" height="52" fill="#f2ead8"/></g>
        <g transform="translate(0 104)"><rect width="52" height="52" fill="#f2ead8"/><rect x="52" width="52" height="52" fill="#6f9f78"/><rect x="104" width="52" height="52" fill="#f2ead8"/><rect x="156" width="52" height="52" fill="#6f9f78"/><rect x="208" width="52" height="52" fill="#f2ead8"/><rect x="260" width="52" height="52" fill="#6f9f78"/><rect x="312" width="52" height="52" fill="#f2ead8"/><rect x="364" width="52" height="52" fill="#6f9f78"/></g>
        <g transform="translate(0 156)"><rect width="52" height="52" fill="#6f9f78"/><rect x="52" width="52" height="52" fill="#f2ead8"/><rect x="104" width="52" height="52" fill="#6f9f78"/><rect x="156" width="52" height="52" fill="#f2ead8"/><rect x="208" width="52" height="52" fill="#6f9f78"/><rect x="260" width="52" height="52" fill="#f2ead8"/><rect x="312" width="52" height="52" fill="#6f9f78"/><rect x="364" width="52" height="52" fill="#f2ead8"/></g>
        <g transform="translate(0 208)"><rect width="52" height="52" fill="#f2ead8"/><rect x="52" width="52" height="52" fill="#6f9f78"/><rect x="104" width="52" height="52" fill="#f2ead8"/><rect x="156" width="52" height="52" fill="#6f9f78"/><rect x="208" width="52" height="52" fill="#f2ead8"/><rect x="260" width="52" height="52" fill="#6f9f78"/><rect x="312" width="52" height="52" fill="#f2ead8"/><rect x="364" width="52" height="52" fill="#6f9f78"/></g>
        <g transform="translate(0 260)"><rect width="52" height="52" fill="#6f9f78"/><rect x="52" width="52" height="52" fill="#f2ead8"/><rect x="104" width="52" height="52" fill="#6f9f78"/><rect x="156" width="52" height="52" fill="#f2ead8"/><rect x="208" width="52" height="52" fill="#6f9f78"/><rect x="260" width="52" height="52" fill="#f2ead8"/><rect x="312" width="52" height="52" fill="#6f9f78"/><rect x="364" width="52" height="52" fill="#f2ead8"/></g>
        <g transform="translate(0 312)"><rect width="52" height="52" fill="#f2ead8"/><rect x="52" width="52" height="52" fill="#6f9f78"/><rect x="104" width="52" height="52" fill="#f2ead8"/><rect x="156" width="52" height="52" fill="#6f9f78"/><rect x="208" width="52" height="52" fill="#f2ead8"/><rect x="260" width="52" height="52" fill="#6f9f78"/><rect x="312" width="52" height="52" fill="#f2ead8"/><rect x="364" width="52" height="52" fill="#6f9f78"/></g>
        <g transform="translate(0 364)"><rect width="52" height="52" fill="#6f9f78"/><rect x="52" width="52" height="52" fill="#f2ead8"/><rect x="104" width="52" height="52" fill="#6f9f78"/><rect x="156" width="52" height="52" fill="#f2ead8"/><rect x="208" width="52" height="52" fill="#6f9f78"/><rect x="260" width="52" height="52" fill="#f2ead8"/><rect x="312" width="52" height="52" fill="#6f9f78"/><rect x="364" width="52" height="52" fill="#f2ead8"/></g>
      </g>
    </g>
    <text x="796" y="258" fill="#102028" font-family="Segoe UI, Arial, sans-serif" font-size="70" font-weight="800">Chess</text>
    <text x="798" y="322" fill="#5a6a72" font-family="Segoe UI, Arial, sans-serif" font-size="32" font-weight="700">Room strategy</text>
    <text x="392" y="258" fill="#102028" font-family="Georgia, serif" font-size="126">♞</text>
    <text x="496" y="414" fill="#fbfbf5" stroke="#102028" stroke-width="2" font-family="Georgia, serif" font-size="138">♕</text>
    <circle cx="812" cy="390" r="24" fill="#20d488"/>
    <circle cx="872" cy="390" r="24" fill="#ffb238"/>
    <circle cx="932" cy="390" r="24" fill="#1b8dff"/>
  </g>
</svg>
